<svg class="border shadow-md" viewBox="0 0 1351.68 760.32" style="width:1351.68px;height:760.32px" xmlns="http://www.w3.org/2000/svg" preserveAspectRatio="none"><path class="bg" fill="#adb5bd" d="M0 0h1351.68v760.32H0z"/><g fill="#495057"><path d="M-449.731 76.906s177.21 34.185 390.196 225.28 155.683 49.47 390.197 225.28 202.938 79.061 390.196 225.28 208.438 69.535 390.197 225.28 94.623 29.228 390.196 225.28l95.263 55-340 588.897-2046.245-1181.4ZM-162.071-421.336s207.688 70.834 390.196 225.28 228.438 34.894 390.197 225.28 207.688 70.834 390.196 225.28 209.984 55.417 390.197 225.28 37.109-35.155 390.196 225.28l95.263 55 352.5-610.547-2046.245-1181.4Z"/></g></svg>